<svg width="342" height="81" viewBox="0 0 342 81" fill="none" xmlns="http://www.w3.org/2000/svg">
<path d="M83.0582 39.6981C83.8179 39.7518 84.5756 39.8314 85.3301 39.9368C84.5772 39.8185 83.8189 39.7389 83.0582 39.6981Z" fill="black" fill-opacity="0.503704"/>
<path d="M0 80.0544L191.037 80.7951L174.386 56.5998L160.51 39.8112L152.901 32.5279L146.455 26.5408L137.593 20.4302L133.43 18.1465L132.177 17.6527L131.326 18.023L130.521 18.4551L130.028 19.3809L120.584 34.9968L102.188 11.9125L101.113 11.2335H100.218L99.3229 11.4804L98.4277 12.2211L97.5772 13.7642L84.1044 39.7494L77.9275 30.4293L73.2277 22.8374L68.3488 14.0111L65.708 8.82636L61.6796 0.493773L60.7396 0L59.6653 0.123443L58.6806 0.802417L57.8749 2.22203L55.6817 5.18472L48.8334 14.3814L34.0625 31.9724L28.4227 38.4533L21.9773 46.6007L13.9204 57.8959L11.9957 61.0438L3.58082 74.7463L0 80.0544Z" fill="#014F54"/>
<path d="M56.0265 10.4607L60.0777 41.1865L58.0521 5.57251L56.0265 10.4607Z" fill="#E5E5E5"/>
<path d="M59.8245 41.1865C52.9881 35.9492 25.3891 54.8036 25.3891 54.8036L41.8472 33.5051L23.8699 51.312L54.7605 11.8574L59.8245 41.1865Z" fill="#E5E5E5"/>
<path d="M58.0566 5.58423L60.0261 2.49809L60.8094 2.37463L61.6822 4.1646L76.4093 34.7271L65.2684 39.2661L63.6226 31.7593L63.496 38.0441L58.0566 5.58423Z" fill="#E5E5E5"/>
<path d="M100.59 14.476L90.9684 35.7746L95.7792 32.8067L89.9556 44.5035L94.26 47.2967L101.603 19.3642L96.9186 47.8205C96.9186 47.8205 97.6149 51.3557 100.432 48.868C103.249 46.3802 112.686 32.7731 112.686 32.7731L107.494 23.6382L112.149 26.8477L103.555 17.4659L100.512 35.7358L102.302 15.7377C102.302 15.7377 102.033 12.9601 101.228 13.7625C100.422 14.5649 100.59 14.476 100.59 14.476Z" fill="#E5E5E5"/>
<path d="M132.381 24.132L119.848 45.3646L127.01 39.1923L122.534 49.8086L141.87 40.4268L139.722 36.4765L144.377 38.2048L137.573 27.0947L149.39 41.9081L153.329 43.1426L155.835 43.8832L154.761 40.1799L157.805 42.8957L158.7 40.6737L136.857 22.6506C136.857 22.6506 133.231 19.2867 132.381 24.132Z" fill="#E5E5E5"/>
<path d="M254.823 30.9986C255.538 30.8823 256.225 30.5044 256.768 30.0102C257.912 28.9928 258.77 27.6556 259.485 26.2894C260.658 24.1383 261.487 21.7547 262.117 19.3419C262.832 16.6095 263.375 13.8189 263.633 10.9701C263.661 10.505 263.375 9.98175 263.032 9.63292C262.603 9.22596 261.859 9.13876 261.316 9.34224C260.772 9.51666 260.286 10.098 260.229 10.6794C259.857 13.9061 259.256 17.1036 258.312 20.1849C257.655 22.307 256.797 24.3999 255.509 26.2022C255.281 26.551 254.623 27.4812 254.222 27.5684C253.851 27.6266 253.278 27.1033 253.05 26.8126C252.249 25.8824 251.677 24.7197 251.219 23.5569C249.875 20.1849 249.274 16.5223 248.616 12.9177C248.445 12.0166 248.33 11.1445 248.101 10.2724C247.93 9.66199 247.215 9.16782 246.586 9.10969C245.613 9.02248 244.755 9.83641 244.755 10.8538C244.755 11.0864 245.012 12.3073 245.07 12.5398C245.556 15.1851 246.013 17.8304 246.671 20.4466C247.129 22.2779 247.672 24.1092 248.473 25.8243C249.274 27.5975 250.361 29.3998 251.991 30.4463C252.792 30.9695 253.879 31.173 254.823 30.9986ZM268.037 31.6381C268.323 31.5799 268.581 31.4346 268.838 31.2893C269.153 31.0567 269.324 30.6207 269.439 30.2428C269.496 30.0102 269.439 28.9347 269.439 28.7021C269.41 27.6266 269.239 20.9989 269.239 19.9233C269.21 18.8187 269.181 12.7724 269.067 11.6678C269.038 11.3189 268.838 10.9701 268.581 10.7085C267.608 9.72014 265.921 10.2434 265.692 11.6387C265.635 11.8712 265.692 12.1329 265.692 12.3654C265.749 13.1793 265.778 17.8594 265.778 18.6443C265.806 20.7082 265.835 22.743 265.892 24.8069C265.921 25.4464 266.035 29.2544 266.035 29.923C266.006 30.33 266.178 30.737 266.436 31.0567C266.779 31.4928 267.494 31.8125 268.037 31.6381ZM277.104 30.1846C276.79 28.9056 276.704 27.5975 276.704 26.2894C278.277 26.0859 279.879 25.9115 281.48 25.7662C283.196 25.6208 284.941 25.4464 286.657 25.4755C286.657 26.7836 286.629 28.0917 286.543 29.3998C286.543 29.7486 286.657 30.1265 286.858 30.4172C287.601 31.4637 289.117 31.4055 289.746 30.3009C289.918 30.0393 289.975 29.6905 289.975 29.3998C290.061 28.1789 290.09 26.9289 290.09 25.708C290.09 25.679 290.29 25.679 290.376 25.708C290.662 25.708 290.948 25.5918 291.234 25.4755C291.577 25.3011 291.834 24.9232 291.977 24.5743C292.12 24.2837 292.092 23.9639 292.063 23.6732C292.035 23.179 291.634 22.743 291.262 22.4523C290.891 22.1907 290.404 22.2198 289.947 22.1907C289.718 19.371 289.146 16.406 287.573 14.0805C286.8 12.9758 285.713 11.9875 284.455 11.5224C283.454 11.1736 282.338 11.0573 281.309 11.2317C279.907 11.4352 278.506 12.1038 277.419 13.0631C275.76 14.4874 274.702 16.6095 274.072 18.7315C273.643 20.1559 273.443 21.6675 273.329 23.15C273.243 23.15 272.785 23.179 272.671 23.2081C270.955 23.4988 270.754 25.9406 272.385 26.551C272.671 26.6673 272.985 26.6673 273.271 26.6382C273.3 27.5394 273.329 28.4405 273.443 29.3126C273.5 29.923 273.643 30.5044 273.815 31.0858C273.872 31.3765 274.101 31.609 274.301 31.8416C274.644 32.1904 275.216 32.2776 275.703 32.2195C276.589 32.1323 277.333 31.0567 277.104 30.1846ZM278.706 16.7839C279.278 15.9409 280.107 15.2142 281.051 14.8653C281.538 14.72 282.052 14.6037 282.539 14.6328C283.025 14.6909 283.511 14.8653 283.883 15.156C284.426 15.5339 284.855 16.1444 285.141 16.7548C285.971 18.3536 286.314 20.1849 286.486 21.9872C284.827 21.9581 283.168 22.1326 281.538 22.2779C279.936 22.4232 278.363 22.5686 276.79 22.7721C277.018 20.6791 277.533 18.4989 278.706 16.7839Z" fill="#343A40"/>
<path d="M197.633 67.3056C198.119 66.9568 198.348 66.172 198.205 65.5615C198.176 65.358 198.176 64.3115 198.176 64.079C198.205 60.3872 198.719 56.7246 199.063 53.0619C200.378 55.5327 201.694 58.0327 202.924 60.5907C203.038 60.8524 203.296 61.0558 203.553 61.2302C203.811 61.4337 204.183 61.4337 204.526 61.4919C204.983 61.5791 205.555 61.4337 205.927 61.114C206.213 60.8523 207.3 59.3117 207.529 58.9629C208.73 57.2769 209.874 55.5327 210.904 53.7305C211.047 56.6083 211.133 59.4861 211.305 62.3349C211.39 63.672 211.448 65.0673 211.791 66.3464C211.877 66.6371 212.077 66.8987 212.277 67.1022C212.563 67.3929 212.992 67.4801 213.392 67.5091C213.793 67.5673 214.165 67.3347 214.508 67.1312C214.88 66.8406 215.08 66.2882 215.109 65.7941C215.137 65.6487 214.994 65.0092 214.966 64.8639C214.851 64.0209 214.794 63.2069 214.737 62.3639C214.537 58.9047 214.451 55.4455 214.251 51.9573C214.222 51.405 214.136 48.7306 213.993 48.2074C213.85 47.6551 213.249 47.19 212.677 47.0737C212.506 47.0446 211.734 47.1028 211.562 47.1028C211.076 47.1609 210.618 47.5097 210.303 47.8876C210.017 48.2365 208.959 50.155 208.759 50.5329C207.586 52.684 206.299 54.777 204.869 56.7827C204.068 55.213 200.636 48.3818 199.406 47.1318C199.206 46.9284 198.891 46.8412 198.605 46.7539C198.405 46.6958 198.147 46.7539 197.919 46.7539C197.432 46.7539 196.918 47.0446 196.546 47.4225C196.059 47.9167 195.916 49.9806 195.831 50.7073C195.659 52.3642 195.516 54.0212 195.344 55.6781C195.001 58.8757 194.658 62.1023 194.772 65.2999C194.772 65.8231 194.801 66.4045 195.058 66.8406C195.201 67.1022 195.43 67.3347 195.688 67.4801C195.945 67.6254 196.231 67.6836 196.546 67.7126C196.918 67.7417 197.318 67.5382 197.633 67.3056ZM230.983 67.5963C232.384 67.3056 233.757 66.5789 234.816 65.5906C236.618 63.8464 237.79 61.3756 238.277 58.9047C238.677 56.9862 238.62 54.9223 238.133 53.0328C237.704 51.4631 237.018 49.9224 235.931 48.7306C234.816 47.5097 233.3 46.6086 231.755 46.1144C230.611 45.7656 229.438 45.4749 228.237 45.533C227.493 45.5621 226.778 45.6784 226.035 45.7656C225.205 45.8819 224.347 45.9691 223.546 46.2598C222.431 46.6667 221.373 47.4225 220.543 48.2946C218.741 50.1259 217.597 52.7131 217.282 55.2711C216.996 57.4222 217.139 59.6896 217.883 61.7244C218.255 62.7128 218.77 63.672 219.456 64.486C220.858 66.201 223.031 67.3929 225.205 67.6545C227.122 67.887 229.124 68.0033 230.983 67.5963ZM224.805 64.0209C223.89 63.7302 223.031 63.236 222.345 62.5674C221.744 61.957 221.315 61.143 221.029 60.3291C220.457 58.6722 220.4 56.8118 220.772 55.1258C221.087 53.7014 221.687 52.277 222.574 51.1724C223.089 50.562 223.689 50.0097 224.376 49.6608C224.776 49.4864 225.205 49.3992 225.634 49.3411C225.663 49.3411 225.834 49.3992 225.863 49.3992C226.035 49.3992 226.235 49.4283 226.435 49.3992C226.521 49.3701 227.036 49.1957 227.122 49.1957C227.579 49.1666 228.008 49.2248 228.466 49.1666C228.523 49.1666 228.838 49.0213 228.924 49.0504C229.009 49.0504 229.496 49.1085 229.61 49.1376C230.411 49.312 231.24 49.5736 231.984 49.9806C232.728 50.3875 233.386 50.9689 233.843 51.6666C234.272 52.3352 234.587 53.0619 234.787 53.7886C235.302 55.8525 235.187 57.9745 234.415 59.9512C233.958 61.143 233.271 62.2767 232.356 63.1488C231.755 63.672 230.983 64.0208 230.211 64.1953C229.524 64.3406 228.838 64.3406 228.123 64.3406C227.007 64.3406 225.863 64.3406 224.805 64.0209ZM250.318 68.0905C251.577 67.9742 252.835 67.4801 253.893 66.7533C255.495 65.6487 256.611 63.8174 257.211 61.957C258.041 59.3408 258.27 56.5211 258.298 53.7595C258.298 53.0328 258.355 49.1376 258.27 48.4109C258.069 46.9284 256.182 46.4342 255.238 47.5679C255.066 47.8004 254.952 48.0911 254.866 48.3818C254.809 48.6143 254.866 48.876 254.894 49.1085C254.894 49.6027 254.894 52.4514 254.866 52.9165C254.866 54.777 254.809 56.6374 254.523 58.4396C254.294 59.8349 253.951 61.2593 253.236 62.4511C252.892 63.0325 252.435 63.5558 251.891 63.9337C250.547 64.8057 248.631 64.8639 247.086 64.3697C246.257 64.079 245.484 63.4685 245.027 62.7128C244.34 61.6081 244.14 60.2128 244.111 58.9338C243.997 55.3583 244.512 51.7829 244.683 48.2074C244.683 47.8295 244.569 47.4807 244.369 47.19C243.396 45.7656 241.337 46.4632 241.251 48.2074C241.108 50.8236 240.822 53.4689 240.708 56.0851C240.622 57.8583 240.565 59.6315 240.908 61.3465C241.137 62.5383 241.566 63.7592 242.252 64.7476C242.91 65.7069 243.768 66.608 244.769 67.1312C246.428 68.0033 248.459 68.2359 250.318 68.0905ZM264.276 67.9452C264.619 67.7126 264.791 67.2766 264.877 66.8987C264.934 66.6661 264.877 65.6778 264.848 65.4162C264.648 61.2302 264.562 57.0443 264.505 52.8293C267.766 57.5094 270.54 62.5093 273.743 67.1894C273.915 67.4219 274.201 67.5382 274.43 67.7417C275.545 68.701 277.233 67.858 277.233 66.3754C277.29 62.6837 277.347 58.9919 277.462 55.3002C277.548 52.8003 277.719 50.3294 277.805 47.8586C277.862 46.0563 275.488 45.3877 274.601 46.9283C274.458 47.219 274.373 47.5388 274.373 47.8295C274.201 52.248 273.972 56.6664 273.886 61.0558C271.083 56.6083 268.338 52.1026 265.191 47.8876C264.791 47.3353 264.362 46.7249 263.761 46.376C262.903 45.9109 261.759 46.1725 261.244 47.0446C261.101 47.3062 261.044 47.5969 261.015 47.9167C261.015 48.0039 261.044 48.0911 261.044 48.2074C261.044 48.2365 261.015 48.4981 261.015 48.5271C261.101 52.8003 261.073 57.0443 261.244 61.3175C261.273 62.0151 261.444 66.172 261.502 66.8696C261.53 67.2766 261.816 67.6254 262.074 67.9161C262.417 68.2649 262.989 68.3521 263.475 68.3231C263.79 68.294 264.047 68.1196 264.276 67.9452ZM290.018 67.5963C290.476 67.451 290.848 67.015 291.048 66.5499C291.191 66.2592 291.162 65.9103 291.134 65.5906C290.848 62.0151 290.848 58.4106 290.762 54.806C290.705 53.0328 290.676 51.2305 290.504 49.4573C292.02 49.4283 293.565 49.3701 295.081 49.5155C295.395 49.5446 295.681 49.6899 295.996 49.6899C296.597 49.6899 297.169 49.3411 297.483 48.8178C298.055 47.8295 297.512 46.5214 296.425 46.2307C295.967 46.1144 295.51 46.0563 295.024 46.0272C292.221 45.8528 289.417 45.9981 286.614 46.0853C284.612 46.1144 282.639 46.1435 280.665 46.3179C280.265 46.347 279.922 46.6086 279.635 46.8993C279.378 47.19 279.264 47.626 279.235 48.0039C279.206 48.3237 279.349 48.6143 279.464 48.876C279.664 49.3411 280.179 49.6027 280.637 49.748C280.951 49.8352 282.324 49.6899 282.639 49.6608C284.126 49.6027 285.585 49.6027 287.044 49.5445C287.244 51.4631 287.301 53.4107 287.33 55.3293C287.444 58.9629 287.444 62.6255 287.759 66.2301C287.787 66.6371 288.045 66.9859 288.331 67.2766C288.731 67.6835 289.475 67.7417 290.018 67.5963ZM301.345 66.5208C301.03 65.2418 300.944 63.9336 300.944 62.6255C302.517 62.4221 304.119 62.2477 305.721 62.1023C307.437 61.957 309.182 61.7825 310.898 61.8116C310.898 63.1197 310.869 64.4278 310.783 65.7359C310.783 66.0848 310.898 66.4627 311.098 66.7533C311.842 67.7998 313.358 67.7417 313.987 66.6371C314.159 66.3754 314.216 66.0266 314.216 65.7359C314.302 64.515 314.33 63.2651 314.33 62.0442C314.33 62.0151 314.53 62.0151 314.616 62.0442C314.902 62.0442 315.188 61.9279 315.474 61.8116C315.818 61.6372 316.075 61.2593 316.218 60.9105C316.361 60.6198 316.332 60.3 316.304 60.0093C316.275 59.5152 315.875 59.0791 315.503 58.7885C315.131 58.5268 314.645 58.5559 314.187 58.5268C313.958 55.7072 313.386 52.7421 311.813 50.4166C311.041 49.312 309.954 48.3237 308.695 47.8586C307.694 47.5097 306.579 47.3935 305.549 47.5679C304.148 47.7713 302.746 48.4399 301.659 49.3992C300 50.8236 298.942 52.9456 298.313 55.0676C297.884 56.492 297.684 58.0036 297.569 59.4861C297.483 59.4861 297.026 59.5152 296.911 59.5442C295.195 59.8349 294.995 62.2767 296.625 62.8872C296.911 63.0034 297.226 63.0035 297.512 62.9744C297.541 63.8755 297.569 64.7767 297.684 65.6487C297.741 66.2592 297.884 66.8405 298.055 67.4219C298.113 67.7126 298.341 67.9452 298.542 68.1777C298.885 68.5265 299.457 68.6138 299.943 68.5556C300.83 68.4684 301.574 67.3929 301.345 66.5208ZM302.946 53.12C303.518 52.277 304.348 51.5503 305.292 51.2015C305.778 51.0561 306.293 50.9399 306.779 50.9689C307.265 51.0271 307.752 51.2015 308.123 51.4922C308.667 51.8701 309.096 52.4805 309.382 53.091C310.211 54.6897 310.555 56.5211 310.726 58.3234C309.067 58.2943 307.408 58.4687 305.778 58.614C304.176 58.7594 302.603 58.9047 301.03 59.1082C301.259 57.0152 301.774 54.8351 302.946 53.12ZM320.565 67.9742C320.852 67.9161 321.109 67.7707 321.366 67.6254C321.681 67.3929 321.853 66.9568 321.967 66.5789C322.024 66.3464 321.967 65.2708 321.967 65.0383C321.938 63.9627 321.767 57.335 321.767 56.2595C321.738 55.1548 321.71 49.1085 321.595 48.0039C321.567 47.6551 321.366 47.3062 321.109 47.0446C320.136 46.0563 318.449 46.5795 318.22 47.9748C318.163 48.2074 318.22 48.469 318.22 48.7015C318.277 49.5155 318.306 54.1956 318.306 54.9804C318.335 57.0443 318.363 59.0791 318.42 61.143C318.449 61.7826 318.563 65.5906 318.563 66.2592C318.535 66.6661 318.706 67.0731 318.964 67.3929C319.307 67.8289 320.022 68.1486 320.565 67.9742ZM328.259 67.9451C328.603 67.7126 328.774 67.2766 328.86 66.8987C328.917 66.6661 328.86 65.6778 328.832 65.4162C328.631 61.2302 328.545 57.0443 328.488 52.8293C331.749 57.5094 334.523 62.5093 337.727 67.1894C337.898 67.4219 338.184 67.5382 338.413 67.7417C339.529 68.7009 341.216 67.8579 341.216 66.3754C341.274 62.6837 341.331 58.9919 341.445 55.3002C341.531 52.8002 341.703 50.3294 341.788 47.8585C341.846 46.0563 339.472 45.3877 338.585 46.9283C338.442 47.219 338.356 47.5388 338.356 47.8295C338.184 52.2479 337.956 56.6664 337.87 61.0558C335.067 56.6083 332.321 52.1026 329.175 47.8876C328.774 47.3353 328.345 46.7249 327.745 46.376C326.887 45.9109 325.742 46.1725 325.228 47.0446C325.085 47.3062 325.027 47.5969 324.999 47.9167C324.999 48.0039 325.027 48.0911 325.027 48.2074C325.027 48.2364 324.999 48.498 324.999 48.5271C325.085 52.8002 325.056 57.0443 325.228 61.3174C325.256 62.0151 325.428 66.1719 325.485 66.8696C325.514 67.2766 325.8 67.6254 326.057 67.9161C326.4 68.2649 326.972 68.3521 327.459 68.323C327.773 68.294 328.031 68.1196 328.259 67.9451Z" fill="#343A40"/>
</svg>
