<svg width="331" height="317" viewBox="0 0 331 317" fill="none" xmlns="http://www.w3.org/2000/svg">
<path d="M158.71 309.644C159.68 309.7 160.215 308.595 159.482 307.951L159.409 307.685C159.419 307.664 159.428 307.643 159.438 307.621C160.418 305.477 163.74 305.492 164.712 307.639C165.575 309.545 166.673 311.455 166.944 313.47C167.065 314.359 167.01 315.266 166.795 316.139C168.816 312.088 169.88 307.665 169.88 303.217C169.88 302.1 169.813 300.982 169.677 299.867C169.565 298.955 169.41 298.049 169.21 297.151C168.129 292.297 165.786 287.674 162.407 283.813C160.783 282.998 159.428 281.725 158.61 280.199C158.316 279.648 158.086 279.056 157.977 278.453C158.162 278.475 158.674 275.893 158.534 275.734C158.792 275.376 159.253 275.197 159.534 274.847C160.934 273.107 162.861 273.411 163.868 275.776C166.018 276.771 166.039 278.422 164.719 280.01C163.88 281.02 163.765 282.387 163.028 283.468C163.104 283.557 163.183 283.643 163.259 283.732C164.648 285.367 165.85 287.124 166.863 288.97C166.576 286.918 166.999 284.447 167.72 282.854C168.54 281.039 170.077 279.51 171.431 277.941C173.057 276.056 176.392 276.878 176.678 279.268C176.681 279.291 176.684 279.314 176.687 279.337C176.485 279.441 176.288 279.552 176.096 279.668C174.998 280.334 175.378 281.895 176.678 282.079L176.708 282.084C176.635 282.748 176.511 283.407 176.329 284.055C178.066 290.216 174.316 292.461 168.962 292.561C168.844 292.617 168.729 292.673 168.61 292.726C169.153 294.127 169.586 295.564 169.907 297.021C170.195 298.308 170.395 299.609 170.507 300.915C170.647 302.564 170.635 304.221 170.483 305.867L170.492 305.808C170.877 303.996 171.95 302.303 173.508 301.129C175.828 299.381 179.106 298.737 181.61 297.331C182.815 296.655 184.359 297.529 184.149 298.811L184.138 298.872C183.766 299.011 183.402 299.172 183.05 299.353C182.849 299.457 182.652 299.568 182.46 299.684C181.362 300.35 181.742 301.911 183.042 302.095L183.072 302.1C183.093 302.102 183.111 302.105 183.132 302.108C182.493 303.501 181.602 304.793 180.487 305.908C179.401 311.287 174.736 311.798 169.747 310.231H169.744C169.198 312.411 168.401 314.54 167.377 316.57H158.922C158.892 316.483 158.865 316.394 158.837 316.308C159.619 316.353 160.407 316.311 161.177 316.18C160.549 315.474 159.922 314.763 159.295 314.056C159.28 314.043 159.268 314.029 159.256 314.015C158.937 313.653 158.616 313.295 158.298 312.933C158.278 311.824 158.423 310.718 158.71 309.644Z" fill="#F2F2F2"/>
<path d="M36.3624 309.644C36.6497 310.718 36.7949 311.823 36.775 312.933C36.4568 313.294 36.1354 313.653 35.8172 314.015C35.8051 314.029 35.7929 314.043 35.7778 314.056C35.1505 314.763 34.5232 315.474 33.8959 316.18C34.6656 316.311 35.4535 316.353 36.2354 316.308C36.2081 316.394 36.1809 316.483 36.1505 316.57H27.6957C26.6714 314.54 25.8744 312.411 25.3289 310.231H25.3259C20.3364 311.798 15.672 311.287 14.586 305.908C13.4708 304.793 12.5799 303.501 11.9405 302.108C11.9617 302.105 11.9799 302.102 12.0011 302.1L12.0306 302.095C13.3311 301.911 13.7105 300.35 12.6128 299.684C12.4204 299.568 12.2234 299.457 12.0223 299.353C11.6708 299.172 11.3071 299.011 10.9344 298.872L10.9242 298.811C10.7139 297.529 12.258 296.655 13.463 297.331C15.9664 298.737 19.2447 299.381 21.5651 301.129C23.1227 302.303 24.1955 303.996 24.5804 305.808L24.5895 305.867C24.4379 304.221 24.4258 302.564 24.5652 300.915C24.6773 299.609 24.8774 298.308 25.1653 297.021C25.4864 295.564 25.9198 294.127 26.4623 292.725C26.3441 292.673 26.2289 292.617 26.1107 292.561C20.7566 292.461 17.0069 290.216 18.7438 284.055C18.562 283.407 18.4377 282.748 18.365 282.084L18.3944 282.079C19.695 281.895 20.0744 280.334 18.9767 279.668C18.7843 279.552 18.5873 279.441 18.3862 279.337C18.3888 279.314 18.3915 279.291 18.3943 279.268C18.6808 276.878 22.0155 276.056 23.6417 277.94C24.9956 279.51 26.533 281.039 27.3532 282.854C28.0737 284.447 28.4964 286.918 28.2101 288.97C29.2231 287.124 30.4247 285.367 31.814 283.732C31.8897 283.643 31.9685 283.557 32.0443 283.468C31.3079 282.387 31.1926 281.02 30.3533 280.01C29.0341 278.422 29.0549 276.771 31.2049 275.776C32.2113 273.411 34.1391 273.107 35.5384 274.847C35.8197 275.197 36.2808 275.376 36.5384 275.734C36.399 275.893 36.9112 278.475 37.096 278.453C36.9869 279.056 36.7566 279.648 36.4627 280.199C35.6445 281.725 34.2899 282.998 32.6656 283.813C29.2866 287.674 26.9441 292.297 25.8623 297.151C25.6622 298.049 25.5077 298.955 25.3956 299.867C25.2592 300.982 25.1925 302.1 25.1925 303.217C25.1925 307.665 26.2562 312.088 28.2775 316.139C28.0623 315.266 28.0078 314.359 28.129 313.47C28.3994 311.455 29.4977 309.545 30.3604 307.639C31.3323 305.492 34.6545 305.477 35.6347 307.621C35.6444 307.643 35.6541 307.664 35.6637 307.685L35.5907 307.951C34.8574 308.595 35.3931 309.7 36.3624 309.644Z" fill="#F2F2F2"/>
<path d="M125.904 198.552H73.8054L92.339 43.9216H109.967L125.904 198.552ZM76.2599 197.691H123.466L109.113 44.7824H93.1797L76.2599 197.691Z" fill="#3F3D56"/>
<path d="M139.518 204.8H59.1199V197.691H139.518V204.8ZM60.0582 203.939H138.579V198.552H60.0582V203.939Z" fill="#3F3D56"/>
<path d="M115.883 44.7824H87.0322V37.6736H115.883V44.7824ZM87.9706 43.9216H114.945V38.5345H87.9706V43.9216Z" fill="#3F3D56"/>
<path d="M129.483 215.22L140.551 256.699H144.399L129.483 215.22ZM140.551 256.699H129.652L115.806 204.799H125.739L129.356 214.862L129.483 215.22L129.389 214.862L129.159 214.002L126.476 203.938H114.615L128.92 257.56H140.781L140.551 256.699Z" fill="#3F3D56"/>
<path d="M69.4223 214.002L69.0939 214.862L53.2822 256.699H58.0868L69.4786 214.002L69.6147 213.489L69.4223 214.002ZM72.1624 203.938L69.6147 213.489L72.899 204.799H82.827L68.9813 256.699H58.0868L57.8568 257.56H69.7179L84.0235 203.938H72.1624Z" fill="#3F3D56"/>
<path d="M171.072 316.57H150.925L131.776 288.587L132.639 288.247L151.543 315.709H168.71L145.225 263.548L146.087 263.208L171.072 316.57Z" fill="#3F3D56"/>
<path d="M46.3501 316.57H26.2029L51.1883 263.208L52.0507 263.548L28.5658 315.709H45.732L64.6363 288.247L65.4986 288.587L46.3501 316.57Z" fill="#3F3D56"/>
<path d="M178.683 263.809H23.062V256.7H178.683V263.809ZM24.0004 262.948H177.745V257.561H24.0004V262.948Z" fill="#3F3D56"/>
<path d="M141.524 303.001C113.004 292.254 84.0821 292.254 55.5607 303.001L54.995 302.241C82.227 287.128 107.689 284.539 142.09 302.241L141.524 303.001Z" fill="#3F3D56"/>
<path d="M139.174 291.486C112.331 280.723 85.1101 280.723 58.2675 291.486L57.8559 290.704C84.972 279.831 112.469 279.831 139.585 290.704L139.174 291.486Z" fill="#3F3D56"/>
<path d="M129.389 214.862H69.0939L69.4223 214.002H129.159L129.389 214.862Z" fill="#3F3D56"/>
<path d="M130.83 219.852H67.4893L68.4276 218.073H130.36L130.83 219.852Z" fill="#3F3D56"/>
<path d="M110.01 38.5775H92.2902V24.1182H110.01V38.5775ZM93.2286 37.7167H109.071V25.8399L94.1669 24.9791L93.2286 37.7167Z" fill="#3F3D56"/>
<path d="M103.577 24.9791H98.1683V0H103.577V24.9791ZM99.1067 24.1182H102.638L101.271 0.712985L99.1067 0.860833V24.1182Z" fill="#3F3D56"/>
<path d="M152.641 173.962C151.788 171.947 149.317 170.948 147.12 171.73C144.945 172.504 143.856 174.736 144.664 176.736L144.6 176.759L147.687 184.056L155.006 181.45C155.248 181.406 155.49 181.344 155.727 181.259C157.924 180.477 159.013 178.21 158.161 176.195C157.309 174.18 154.837 173.18 152.641 173.962Z" fill="#353835"/>
<path d="M85.0776 244.981C84.2252 242.966 81.7536 241.966 79.5572 242.748C77.3816 243.523 76.2931 245.755 77.101 247.755L77.0373 247.778L80.1241 255.075L87.4432 252.469C87.6852 252.425 87.9264 252.362 88.1644 252.278C90.3608 251.496 91.4504 249.228 90.598 247.213C89.7456 245.198 87.274 244.199 85.0776 244.981Z" fill="#353835"/>
<path d="M69.0158 94.1189C66.67 93.9171 64.5901 95.4979 64.3701 97.6498C64.1521 99.7813 65.8411 101.673 68.1528 101.904L68.1464 101.967L76.6412 102.698L77.3743 95.527C77.4398 95.3088 77.4867 95.0829 77.5105 94.8498C77.7305 92.6979 76.0073 90.7898 73.6615 90.588C71.3158 90.3861 69.2358 91.967 69.0158 94.1189Z" fill="#353835"/>
<path d="M331 316.139H0V317H331V316.139Z" fill="#3F3D56"/>
<path d="M300.345 198.54C300.267 197.934 299.693 197.412 299.031 197.347C298.548 197.299 297.96 197.441 297.752 196.872C297.675 196.663 297.698 196.436 297.777 196.228C298.153 195.236 297.299 194.102 296.199 193.981C295.21 193.872 294.202 194.603 294.089 195.511C293.801 195.396 293.498 195.315 293.19 195.262C292.273 195.035 291.315 194.947 290.36 194.988L288.647 195.062C288.543 195.043 288.439 195.026 288.335 195.013C284.417 194.496 281.286 197.947 282.305 201.456C285.062 210.956 278.967 211.655 281.609 216.018L294.184 214.043C296.282 214.127 296.926 220.64 296.937 218.713L297.386 204.083C297.663 203.18 297.836 202.343 297.911 201.566C297.969 201.485 298.022 201.401 298.066 201.312C298.309 200.821 298.275 200.205 297.962 199.764C298.356 200.037 298.902 200.133 299.37 199.98C299.997 199.776 300.423 199.146 300.345 198.54Z" fill="#2F2E41"/>
<path d="M266.767 251.686L269.729 235.258L274.18 234.858L269.855 252.076C270.161 252.385 270.377 252.776 270.454 253.219C270.666 254.433 269.765 255.574 268.442 255.768C267.119 255.962 265.874 255.136 265.663 253.922C265.504 253.014 265.969 252.146 266.767 251.686Z" fill="#FFB6B6"/>
<path d="M281.343 218.886C281.343 218.886 277.241 214.61 274.619 218.371C271.997 222.133 271.623 225.22 269.588 231.765C267.977 236.945 268.788 239.505 268.788 239.505L273.332 240.395L276.455 233.158L281.343 218.886Z" fill="#E6E6E6"/>
<path d="M290.139 309.143L287.202 309.8L282.983 299.49L287.317 298.521L290.139 309.143Z" fill="#FFB6B6"/>
<path d="M281.93 315.593C282.107 316.258 282.838 316.666 283.563 316.505L289.401 315.199L289.899 313.066L290.799 314.885L293.002 314.394L290.574 307.724L289.797 307.855L286.623 308.38L285.599 308.552L286.111 310.479L282.233 314.476C281.938 314.78 281.825 315.198 281.93 315.593Z" fill="#2F2E41"/>
<path d="M294.683 310.557L291.661 310.615L289.976 299.711L294.436 299.627L294.683 310.557Z" fill="#FFB6B6"/>
<path d="M285.146 315.223C285.162 315.908 285.779 316.451 286.525 316.437L292.533 316.323L293.522 314.339L293.971 316.294L296.238 316.253L295.443 309.258L294.653 309.231L291.43 309.114L290.391 309.078L290.435 311.062L285.705 314.193C285.346 314.431 285.137 314.816 285.146 315.223Z" fill="#2F2E41"/>
<path d="M297.668 266.756L263.855 267.422L270.247 247.674H297.668V266.756Z" fill="#D6D5DA"/>
<path d="M291.634 208.813H285.158V213.305L279.156 216.927L276.629 222.65L277.892 225.838L275.298 240.874L291.634 233.227L296.925 214.246L293.529 212.363L291.634 208.813Z" fill="#353835"/>
<path d="M295.867 233.227L276.629 232.213L268.034 253.557L266.853 271.046L283.736 304.539H289.901L277.571 271.904L279.878 254.777L289.286 304.441L295.867 304.362L293.811 274.657L295.867 233.227Z" fill="#2F2E41"/>
<path d="M293.529 212.363C293.529 212.363 290.795 226.073 290.795 232.213C290.795 238.353 285.864 266.756 285.864 266.756L297.668 266.756L299.82 213.387L293.529 212.363Z" fill="#E6E6E6"/>
<path d="M280.005 215.687C280.005 215.687 273.684 217.059 273.165 223.181C272.646 229.303 263.855 267.422 263.855 267.422H269.935L285.158 213.305L280.005 215.687Z" fill="#E6E6E6"/>
<path d="M289.424 208.398C293.349 208.398 296.531 205.479 296.531 201.879C296.531 198.278 293.349 195.36 289.424 195.36C285.499 195.36 282.317 198.278 282.317 201.879C282.317 205.479 285.499 208.398 289.424 208.398Z" fill="#FFB6B6"/>
<path d="M298.111 250.289L298.16 233.638L302.483 232.588L301.227 250.219C301.583 250.479 301.865 250.833 302.019 251.259C302.44 252.426 301.75 253.685 300.478 254.072C299.206 254.458 297.834 253.826 297.412 252.659C297.097 251.786 297.404 250.861 298.111 250.289Z" fill="#FFB6B6"/>
<path d="M295.513 214.629C295.513 214.629 300.498 211.232 302.207 215.413C303.916 219.593 303.579 222.684 304.081 229.474C304.479 234.848 302.656 237.571 302.656 237.571H298.009L297.049 229.522L295.513 214.629Z" fill="#E6E6E6"/>
<path d="M297.708 206.805L299.268 210.756C299.215 212.199 298.894 212.478 297.391 212.908L292.238 216.531C294.717 213.932 291.038 210.727 292.521 208.44C294.084 206.031 294.198 201.055 291.183 200.594C289.691 200.367 286.676 201.769 285.724 200.94C285.909 200.305 285.403 200.26 284.953 200.76C282.96 201.032 281.762 202.15 280.97 200.857V199.565C282.223 195.913 281.908 194.831 286.46 194.706C288.08 194.662 289.697 194.563 291.287 194.854L292.576 195.09C295.078 195.734 296.19 196.631 297.139 198.663C297.139 198.663 299.805 199.949 297.708 206.805Z" fill="#2F2E41"/>
</svg>
